<!-- Generated by IcoMoon.io -->
<svg version="1.1" xmlns="http://www.w3.org/2000/svg" width="35" height="32" viewBox="0 0 35 32">
<title>Icon</title>
<path fill="none" stroke-linejoin="round" stroke-linecap="round" stroke-miterlimit="4" stroke-width="3.2" stroke="#000" d="M4.8 9.595c-0.262-0.007-0.453-0.022-0.624-0.056-1.269-0.252-2.262-1.245-2.514-2.514-0.062-0.309-0.062-0.681-0.062-1.424s0-1.115 0.062-1.424c0.252-1.269 1.245-2.262 2.514-2.514 0.309-0.062 0.681-0.062 1.424-0.062h24c0.744 0 1.115 0 1.424 0.062 1.269 0.252 2.262 1.245 2.514 2.514 0.061 0.309 0.061 0.681 0.061 1.424s0 1.115-0.061 1.424c-0.252 1.269-1.245 2.262-2.514 2.514-0.171 0.034-0.362 0.049-0.624 0.056M14.4 17.6h6.4M4.8 9.6h25.6v13.12c0 2.688 0 4.032-0.523 5.059-0.46 0.903-1.194 1.637-2.098 2.098-1.027 0.523-2.371 0.523-5.059 0.523h-10.24c-2.688 0-4.032 0-5.059-0.523-0.903-0.46-1.638-1.194-2.098-2.098-0.523-1.027-0.523-2.371-0.523-5.059v-13.12z"></path>
</svg>
