<!-- Generated by IcoMoon.io -->
<svg version="1.1" xmlns="http://www.w3.org/2000/svg" width="32" height="32" viewBox="0 0 32 32">
<title>inbox-01</title>
<path fill="none" stroke-linejoin="round" stroke-linecap="round" stroke-miterlimit="4" stroke-width="2.6667" stroke="#000" d="M3.333 16h4.509c0.914 0 1.749 0.516 2.157 1.333s1.244 1.333 2.157 1.333h7.685c0.914 0 1.749-0.516 2.157-1.333s1.244-1.333 2.157-1.333h4.509M11.955 5.333h8.089c1.436 0 2.154 0 2.788 0.219 0.561 0.193 1.071 0.509 1.495 0.924 0.479 0.469 0.8 1.111 1.442 2.396l2.889 5.777c0.252 0.504 0.378 0.756 0.467 1.020 0.079 0.235 0.136 0.476 0.17 0.721 0.039 0.276 0.039 0.558 0.039 1.121v2.756c0 2.24 0 3.36-0.436 4.216-0.383 0.753-0.995 1.365-1.748 1.748-0.856 0.436-1.976 0.436-4.216 0.436h-13.867c-2.24 0-3.36 0-4.216-0.436-0.753-0.383-1.365-0.995-1.748-1.748-0.436-0.856-0.436-1.976-0.436-4.216v-2.756c0-0.563 0-0.845 0.039-1.121 0.034-0.245 0.091-0.486 0.17-0.721 0.089-0.264 0.215-0.516 0.467-1.020l2.889-5.777c0.642-1.284 0.963-1.926 1.442-2.396 0.424-0.415 0.934-0.73 1.495-0.924 0.634-0.219 1.352-0.219 2.788-0.219z"></path>
</svg>
