<!-- Generated by IcoMoon.io -->
<svg version="1.1" xmlns="http://www.w3.org/2000/svg" width="64" height="32" viewBox="0 0 64 32">
<title>Logo</title>
<path d="M3.003 28.125c-4.004-3.968-4.003-10.402 0-14.371l10.874-10.778c3.384-3.355 8.547-3.873 12.481-1.556 1.217 0.717 1.206 2.361 0.205 3.353s-2.635 0.907-3.993 0.513c-1.74-0.504-3.696-0.077-5.068 1.283l-10.874 10.778c-2.002 1.984-2.002 5.201-0 7.185s5.248 1.984 7.249 0l21.748-21.556c4.004-3.968 10.495-3.968 14.498-0l10.874 10.778c4.004 3.968 4.004 10.403 0 14.371s-10.495 3.968-14.499 0l-3.625-3.593-4.531 4.491c-3.384 3.355-8.547 3.873-12.481 1.556-1.217-0.717-1.206-2.361-0.205-3.353s2.635-0.907 3.993-0.513c1.74 0.504 3.696 0.077 5.068-1.283l4.66-4.619c1.93-1.913 5.060-1.913 6.99 0l3.754 3.721c2.002 1.984 5.247 1.984 7.249 0s2.002-5.201 0-7.185l-10.874-10.778c-2.002-1.984-5.248-1.984-7.249 0l-21.748 21.556c-4.004 3.968-10.495 3.968-14.499-0z"></path>
</svg>
