<!-- Generated by IcoMoon.io -->
<svg version="1.1" xmlns="http://www.w3.org/2000/svg" width="32" height="32" viewBox="0 0 32 32">
<title>log-out-03</title>
<path fill="none" stroke-linejoin="round" stroke-linecap="round" stroke-miterlimit="4" stroke-width="2.6667" stroke="#000" d="M21.333 22.667l6.667-6.667M28 16l-6.667-6.667M28 16h-16M16 22.667c0 0.394 0 0.591-0.015 0.762-0.152 1.774-1.459 3.234-3.205 3.581-0.168 0.033-0.364 0.055-0.756 0.099l-1.362 0.151c-2.046 0.227-3.069 0.341-3.882 0.081-1.084-0.347-1.968-1.139-2.433-2.177-0.348-0.779-0.348-1.808-0.348-3.867v-10.593c0-2.059 0-3.088 0.348-3.867 0.464-1.039 1.349-1.831 2.433-2.177 0.813-0.26 1.836-0.146 3.882 0.081l1.362 0.151c0.392 0.044 0.588 0.065 0.756 0.099 1.746 0.347 3.053 1.807 3.205 3.581 0.015 0.171 0.015 0.368 0.015 0.762"></path>
</svg>
