<!-- Generated by IcoMoon.io -->
<svg version="1.1" xmlns="http://www.w3.org/2000/svg" width="32" height="32" viewBox="0 0 32 32">
<title>mail-05</title>
<path fill="none" stroke-linejoin="round" stroke-linecap="round" stroke-miterlimit="4" stroke-width="2.6667" stroke="#000" d="M18.325 3.511l10.037 6.524c0.355 0.231 0.532 0.346 0.661 0.5 0.114 0.136 0.199 0.294 0.251 0.463 0.059 0.192 0.059 0.403 0.059 0.826v9.776c0 2.24 0 3.36-0.436 4.216-0.383 0.753-0.995 1.365-1.748 1.748-0.856 0.436-1.976 0.436-4.216 0.436h-13.867c-2.24 0-3.36 0-4.216-0.436-0.753-0.383-1.365-0.995-1.748-1.748-0.436-0.856-0.436-1.976-0.436-4.216v-9.776c0-0.423 0-0.635 0.059-0.826 0.052-0.17 0.138-0.327 0.251-0.463 0.128-0.154 0.306-0.269 0.66-0.5l10.037-6.524M18.325 3.511c-0.842-0.547-1.263-0.821-1.716-0.927-0.401-0.094-0.818-0.094-1.219 0-0.453 0.106-0.874 0.38-1.716 0.927M18.325 3.511l8.256 5.367c0.917 0.596 1.376 0.894 1.535 1.272 0.139 0.33 0.139 0.703 0 1.033-0.159 0.378-0.617 0.676-1.535 1.272l-8.256 5.367c-0.842 0.547-1.263 0.821-1.716 0.927-0.401 0.094-0.818 0.094-1.219 0-0.453-0.106-0.874-0.38-1.716-0.927l-8.256-5.367c-0.917-0.596-1.376-0.894-1.535-1.272-0.139-0.33-0.139-0.703 0-1.033 0.159-0.378 0.617-0.676 1.535-1.272l8.256-5.367M28.667 25.333l-8.857-8M12.19 17.333l-8.857 8"></path>
</svg>
