<svg aria-hidden="true" style="position: absolute; width: 0; height: 0; overflow: hidden;" version="1.1" xmlns="http://www.w3.org/2000/svg" xmlns:xlink="http://www.w3.org/1999/xlink">
<defs>
<symbol id="logo" viewBox="0 0 64 32">
<path d="M3.003 28.125c-4.004-3.968-4.003-10.402 0-14.371l10.874-10.778c3.384-3.355 8.547-3.873 12.481-1.556 1.217 0.717 1.206 2.361 0.205 3.353s-2.635 0.907-3.993 0.513c-1.74-0.504-3.696-0.077-5.068 1.283l-10.874 10.778c-2.002 1.984-2.002 5.201-0 7.185s5.248 1.984 7.249 0l21.748-21.556c4.004-3.968 10.495-3.968 14.498-0l10.874 10.778c4.004 3.968 4.004 10.403 0 14.371s-10.495 3.968-14.499 0l-3.625-3.593-4.531 4.491c-3.384 3.355-8.547 3.873-12.481 1.556-1.217-0.717-1.206-2.361-0.205-3.353s2.635-0.907 3.993-0.513c1.74 0.504 3.696 0.077 5.068-1.283l4.66-4.619c1.93-1.913 5.060-1.913 6.99 0l3.754 3.721c2.002 1.984 5.247 1.984 7.249 0s2.002-5.201 0-7.185l-10.874-10.778c-2.002-1.984-5.248-1.984-7.249 0l-21.748 21.556c-4.004 3.968-10.495 3.968-14.499-0z"></path>
</symbol>
<symbol id="icon-x-close" viewBox="0 0 32 32">
<path fill="none" stroke="#88909b" style="stroke: var(--color1, #88909b)" stroke-linejoin="round" stroke-linecap="round" stroke-miterlimit="4" stroke-width="2.5263" d="M24 8l-16 16M8 8l16 16"></path>
</symbol>
<symbol id="trash" viewBox="0 0 32 32">
<path stroke-linejoin="round" stroke-linecap="round" stroke-miterlimit="4" stroke-width="2.6667" d="M21.333 8v-1.067c0-1.493 0-2.24-0.291-2.811-0.256-0.502-0.664-0.91-1.165-1.165-0.57-0.291-1.317-0.291-2.811-0.291h-2.133c-1.493 0-2.24 0-2.811 0.291-0.502 0.256-0.91 0.664-1.165 1.165-0.291 0.57-0.291 1.317-0.291 2.811v1.067M13.333 15.333v6.667M18.667 15.333v6.667M4 8h24M25.333 8v14.933c0 2.24 0 3.36-0.436 4.216-0.383 0.753-0.995 1.365-1.748 1.748-0.856 0.436-1.976 0.436-4.216 0.436h-5.867c-2.24 0-3.36 0-4.216-0.436-0.753-0.383-1.365-0.995-1.748-1.748-0.436-0.856-0.436-1.976-0.436-4.216v-14.933"></path>
</symbol>
<symbol id="mail" viewBox="0 0 32 32">
<path stroke-linejoin="round" stroke-linecap="round" stroke-miterlimit="4" stroke-width="2.6667" d="M18.325 3.511l10.037 6.524c0.355 0.231 0.532 0.346 0.661 0.5 0.114 0.136 0.199 0.294 0.251 0.463 0.059 0.192 0.059 0.403 0.059 0.826v9.776c0 2.24 0 3.36-0.436 4.216-0.383 0.753-0.995 1.365-1.748 1.748-0.856 0.436-1.976 0.436-4.216 0.436h-13.867c-2.24 0-3.36 0-4.216-0.436-0.753-0.383-1.365-0.995-1.748-1.748-0.436-0.856-0.436-1.976-0.436-4.216v-9.776c0-0.423 0-0.635 0.059-0.826 0.052-0.17 0.138-0.327 0.251-0.463 0.128-0.154 0.306-0.269 0.66-0.5l10.037-6.524M18.325 3.511c-0.842-0.547-1.263-0.821-1.716-0.927-0.401-0.094-0.818-0.094-1.219 0-0.453 0.106-0.874 0.38-1.716 0.927M18.325 3.511l8.256 5.367c0.917 0.596 1.376 0.894 1.535 1.272 0.139 0.33 0.139 0.703 0 1.033-0.159 0.378-0.617 0.676-1.535 1.272l-8.256 5.367c-0.842 0.547-1.263 0.821-1.716 0.927-0.401 0.094-0.818 0.094-1.219 0-0.453-0.106-0.874-0.38-1.716-0.927l-8.256-5.367c-0.917-0.596-1.376-0.894-1.535-1.272-0.139-0.33-0.139-0.703 0-1.033 0.159-0.378 0.617-0.676 1.535-1.272l8.256-5.367M28.667 25.333l-8.857-8M12.19 17.333l-8.857 8"></path>
</symbol>
<symbol id="bookmark" viewBox="0 0 32 32">
<path stroke-linejoin="round" stroke-linecap="round" stroke-miterlimit="4" stroke-width="2.6667" d="M6.667 10.4c0-2.24 0-3.36 0.436-4.216 0.383-0.753 0.995-1.365 1.748-1.748 0.856-0.436 1.976-0.436 4.216-0.436h5.867c2.24 0 3.36 0 4.216 0.436 0.753 0.383 1.365 0.995 1.748 1.748 0.436 0.856 0.436 1.976 0.436 4.216v17.6l-9.333-5.333-9.333 5.333v-17.6z"></path>
</symbol>
<symbol id="iinbox" viewBox="0 0 32 32">
<path stroke-linejoin="round" stroke-linecap="round" stroke-miterlimit="4" stroke-width="2.6667" d="M3.333 16h4.509c0.914 0 1.749 0.516 2.157 1.333s1.244 1.333 2.157 1.333h7.685c0.914 0 1.749-0.516 2.157-1.333s1.244-1.333 2.157-1.333h4.509M11.955 5.333h8.089c1.436 0 2.154 0 2.788 0.219 0.561 0.193 1.071 0.509 1.495 0.924 0.479 0.469 0.8 1.111 1.442 2.396l2.889 5.777c0.252 0.504 0.378 0.756 0.467 1.020 0.079 0.235 0.136 0.476 0.17 0.721 0.039 0.276 0.039 0.558 0.039 1.121v2.756c0 2.24 0 3.36-0.436 4.216-0.383 0.753-0.995 1.365-1.748 1.748-0.856 0.436-1.976 0.436-4.216 0.436h-13.867c-2.24 0-3.36 0-4.216-0.436-0.753-0.383-1.365-0.995-1.748-1.748-0.436-0.856-0.436-1.976-0.436-4.216v-2.756c0-0.563 0-0.845 0.039-1.121 0.034-0.245 0.091-0.486 0.17-0.721 0.089-0.264 0.215-0.516 0.467-1.020l2.889-5.777c0.642-1.284 0.963-1.926 1.442-2.396 0.424-0.415 0.934-0.73 1.495-0.924 0.634-0.219 1.352-0.219 2.788-0.219z"></path>
</symbol>
<symbol id="logout" viewBox="0 0 32 32">
<path stroke-linejoin="round" stroke-linecap="round" stroke-miterlimit="4" stroke-width="2.6667" d="M21.333 22.667l6.667-6.667M28 16l-6.667-6.667M28 16h-16M16 22.667c0 0.394 0 0.591-0.015 0.762-0.152 1.774-1.459 3.234-3.205 3.581-0.168 0.033-0.364 0.055-0.756 0.099l-1.362 0.151c-2.046 0.227-3.069 0.341-3.882 0.081-1.084-0.347-1.968-1.139-2.433-2.177-0.348-0.779-0.348-1.808-0.348-3.867v-10.593c0-2.059 0-3.088 0.348-3.867 0.464-1.039 1.349-1.831 2.433-2.177 0.813-0.26 1.836-0.146 3.882 0.081l1.362 0.151c0.392 0.044 0.588 0.065 0.756 0.099 1.746 0.347 3.053 1.807 3.205 3.581 0.015 0.171 0.015 0.368 0.015 0.762"></path>
</symbol>
<symbol id="archive" viewBox="0 0 35 32">
<path stroke-linejoin="round" stroke-linecap="round" stroke-miterlimit="4" stroke-width="3.2" d="M4.8 9.595c-0.262-0.007-0.453-0.022-0.624-0.056-1.269-0.252-2.262-1.245-2.514-2.514-0.062-0.309-0.062-0.681-0.062-1.424s0-1.115 0.062-1.424c0.252-1.269 1.245-2.262 2.514-2.514 0.309-0.062 0.681-0.062 1.424-0.062h24c0.744 0 1.115 0 1.424 0.062 1.269 0.252 2.262 1.245 2.514 2.514 0.061 0.309 0.061 0.681 0.061 1.424s0 1.115-0.061 1.424c-0.252 1.269-1.245 2.262-2.514 2.514-0.171 0.034-0.362 0.049-0.624 0.056M14.4 17.6h6.4M4.8 9.6h25.6v13.12c0 2.688 0 4.032-0.523 5.059-0.46 0.903-1.194 1.637-2.098 2.098-1.027 0.523-2.371 0.523-5.059 0.523h-10.24c-2.688 0-4.032 0-5.059-0.523-0.903-0.46-1.638-1.194-2.098-2.098-0.523-1.027-0.523-2.371-0.523-5.059v-13.12z"></path>
</symbol>
</defs>
</svg>
